<svg width="296" height="170" viewBox="0 0 296 170" fill="none" xmlns="http://www.w3.org/2000/svg">
<rect x="88" width="120" height="120" rx="60" fill="#EFF0F0"/>
<g clip-path="url(#clip0_28_277)">
<path d="M170.143 68.3916L168.197 47.3648C168.077 46.1024 167.48 44.9336 166.526 44.0978C165.572 43.262 164.335 42.8227 163.068 42.8698C161.801 42.9169 160.6 43.447 159.711 44.3513C158.822 45.2556 158.312 46.4656 158.287 47.7334L158.133 50.6497C154.684 45.0282 147.657 33.6105 147.573 33.4743C147.229 32.9044 146.773 32.4096 146.234 32.019C145.695 31.6285 145.083 31.3503 144.434 31.2009C143.801 31.0515 143.145 31.0308 142.504 31.1399C141.863 31.2489 141.25 31.4856 140.702 31.8359C139.745 32.4465 139.025 33.3647 138.659 34.4394L137.415 32.4025C137.071 31.8327 136.615 31.3379 136.076 30.9474C135.537 30.557 134.925 30.2787 134.276 30.1293C133.643 29.9798 132.987 29.959 132.346 30.068C131.704 30.1771 131.092 30.4138 130.544 30.7641C129.426 31.4926 128.636 32.6285 128.343 33.9301C128.049 35.2318 128.275 36.5966 128.972 37.7345L129.681 38.8952C128.552 38.7508 127.409 39.0074 126.451 39.6199C125.333 40.3485 124.543 41.4844 124.25 42.786C123.956 44.0877 124.182 45.4525 124.879 46.5904L127.305 50.561C126.176 50.4153 125.033 50.672 124.075 51.2858C122.957 52.0143 122.167 53.15 121.873 54.4517C121.58 55.7533 121.805 57.1181 122.502 58.256L135.563 79.6475C139.178 85.5637 145.906 90.0002 152.988 90C155.775 89.9998 158.517 89.3016 160.965 87.969C160.985 87.9582 161.005 87.9468 161.024 87.9347L162.541 86.97C166.303 84.5768 168.534 81.8703 169.776 78.1942C170.684 75.5046 170.563 73.0536 170.345 70.5714C170.241 69.3906 170.143 68.3914 170.143 68.3916ZM168 77.594C166.904 80.8365 164.911 83.2399 161.535 85.3874L160.047 86.3334C151.462 90.9324 141.673 86.0532 137.163 78.6697L124.102 57.2785C123.659 56.5606 123.513 55.6983 123.696 54.8747C123.879 54.0511 124.376 53.3313 125.081 52.8681C125.783 52.4427 126.624 52.3118 127.422 52.504C128.22 52.6962 128.91 53.1959 129.341 53.8943L137.649 67.4933C137.781 67.7022 137.99 67.8515 138.23 67.9095C138.471 67.9676 138.724 67.9299 138.937 67.8044C139.15 67.6747 139.302 67.466 139.36 67.2243C139.418 66.9825 139.378 66.7275 139.249 66.5153L126.478 45.6124C126.035 44.8946 125.89 44.0323 126.073 43.2087C126.255 42.3852 126.752 41.6654 127.457 41.2023C128.159 40.7758 129.002 40.6448 129.801 40.8379C130.6 41.0309 131.29 41.5324 131.72 42.2325L144.492 63.1391C144.625 63.3476 144.834 63.4964 145.074 63.5544C145.314 63.6124 145.568 63.5751 145.781 63.4503C145.993 63.3206 146.145 63.1119 146.203 62.8702C146.262 62.6284 146.222 62.3734 146.092 62.1612L130.572 36.7568C130.128 36.0389 129.983 35.1765 130.166 34.353C130.348 33.5294 130.845 32.8096 131.55 32.3464C132.253 31.9191 133.097 31.788 133.896 31.9819C134.696 32.1757 135.386 32.6786 135.815 33.3804L151.335 58.7851C151.468 58.9939 151.676 59.1431 151.917 59.2012C152.157 59.2592 152.411 59.2216 152.624 59.0962C152.836 58.9664 152.988 58.7578 153.047 58.5161C153.105 58.2744 153.065 58.0194 152.935 57.8071L140.73 37.8284C140.287 37.1106 140.141 36.2482 140.324 35.4246C140.506 34.601 141.003 33.8812 141.708 33.4182C142.046 33.2022 142.424 33.0563 142.82 32.9892C143.215 32.9222 143.62 32.9353 144.01 33.0279C144.417 33.122 144.8 33.2968 145.137 33.5419C145.475 33.787 145.76 34.0974 145.975 34.4548C146.077 34.6214 156.249 51.1498 158.111 54.2016C158.215 54.3725 158.371 54.5055 158.557 54.5812C158.742 54.6569 158.947 54.6712 159.141 54.6221C159.335 54.573 159.508 54.463 159.635 54.3083C159.762 54.1536 159.837 53.9622 159.847 53.7623L160.16 47.8128C160.166 47.0184 160.477 46.2565 161.029 45.6852C161.581 45.114 162.332 44.7771 163.126 44.7445C163.919 44.7119 164.695 44.9861 165.292 45.5102C165.889 46.0343 166.262 46.7681 166.333 47.5594C166.333 47.5594 168.374 69.5632 168.477 70.7355C168.685 73.0984 168.793 75.2455 168 77.594L168 77.594ZM125.798 81.6214C123.671 80.9097 121.881 78.6434 120.916 76.7598C119.788 74.5686 119.568 72.0218 120.302 69.6694C120.378 69.4328 120.356 69.1761 120.242 68.9555C120.128 68.7349 119.931 68.5685 119.695 68.4927C119.459 68.4169 119.202 68.438 118.981 68.5513C118.76 68.6646 118.593 68.8609 118.517 69.0971C117.632 71.9224 117.895 74.9822 119.248 77.6155C119.798 78.6892 121.854 82.2791 125.203 83.3997C125.439 83.4786 125.697 83.4605 125.919 83.3495C126.142 83.2385 126.311 83.0437 126.39 82.8079C126.469 82.5721 126.451 82.3146 126.34 82.0921C126.229 81.8696 126.034 81.7003 125.798 81.6214H125.798ZM128.142 76.9329C127.041 76.5648 126.098 75.3588 125.582 74.3527C124.986 73.1954 124.869 71.85 125.257 70.6071C125.294 70.4899 125.308 70.3664 125.298 70.2437C125.288 70.121 125.254 70.0015 125.197 69.8921C125.141 69.7826 125.064 69.6853 124.97 69.6058C124.876 69.5262 124.767 69.4659 124.65 69.4283C124.533 69.3907 124.409 69.3766 124.287 69.3867C124.164 69.3969 124.045 69.4311 123.935 69.4874C123.826 69.5437 123.728 69.6211 123.649 69.715C123.569 69.8089 123.509 69.9176 123.471 70.0348C122.934 71.7504 123.092 73.6088 123.914 75.2082C124.246 75.856 125.488 78.023 127.547 78.7116C127.783 78.7874 128.039 78.7679 128.261 78.6573C128.483 78.5467 128.652 78.3537 128.734 78.1196C128.812 77.8838 128.794 77.6263 128.683 77.4038C128.572 77.1812 128.378 77.0119 128.142 76.9329V76.9329ZM176.072 39.6808C175.407 38.6889 172.97 35.3993 169.574 34.7084C169.331 34.6595 169.078 34.7091 168.871 34.8464C168.664 34.9838 168.52 35.1976 168.471 35.4409C168.421 35.6843 168.47 35.9374 168.607 36.1446C168.744 36.3518 168.958 36.4962 169.201 36.5462C171.343 36.9821 173.351 38.9911 174.516 40.7261C175.879 42.7575 176.403 45.2381 175.977 47.6473C175.955 47.7684 175.957 47.8927 175.983 48.0132C176.008 48.1336 176.058 48.2477 176.128 48.3491C176.197 48.4505 176.287 48.5371 176.39 48.604C176.493 48.6709 176.609 48.7168 176.73 48.739C176.786 48.7496 176.843 48.7549 176.9 48.7548C177.119 48.7545 177.331 48.6775 177.5 48.5372C177.668 48.3968 177.782 48.202 177.821 47.9866C178.334 45.096 177.707 42.119 176.072 39.6808V39.6808ZM167.874 39.6236C167.631 39.5747 167.378 39.6243 167.171 39.7616C166.964 39.899 166.82 40.1128 166.771 40.3561C166.721 40.5995 166.77 40.8526 166.907 41.0598C167.044 41.267 167.257 41.4114 167.501 41.4614C168.606 41.6862 169.663 42.7548 170.284 43.6801C171.005 44.7536 171.283 46.0647 171.058 47.3383C171.013 47.5828 171.067 47.8352 171.208 48.0399C171.349 48.2446 171.566 48.3849 171.81 48.4298C172.055 48.4748 172.307 48.4208 172.512 48.2798C172.717 48.1387 172.857 47.9221 172.902 47.6775C173.214 45.9227 172.833 44.1152 171.841 42.6348C171.439 42.036 169.965 40.0487 167.874 39.6236Z" fill="#3B424F"/>
</g>
<path d="M7.19318 165L0.625 141.727H5.15909L9.35227 158.83H9.56818L14.0455 141.727H18.1705L22.6591 158.841H22.8636L27.0568 141.727H31.5909L25.0227 165H20.8636L16.2045 148.67H16.0227L11.3523 165H7.19318ZM40.2784 165.341C38.5284 165.341 37.017 164.977 35.7443 164.25C34.4792 163.515 33.5057 162.477 32.8239 161.136C32.142 159.788 31.8011 158.201 31.8011 156.375C31.8011 154.58 32.142 153.004 32.8239 151.648C33.5133 150.284 34.4754 149.223 35.7102 148.466C36.9451 147.701 38.3958 147.318 40.0625 147.318C41.1383 147.318 42.1534 147.492 43.108 147.841C44.0701 148.182 44.9186 148.712 45.6534 149.432C46.3958 150.152 46.9792 151.068 47.4034 152.182C47.8277 153.288 48.0398 154.606 48.0398 156.136V157.398H33.733V154.625H44.0966C44.089 153.837 43.9186 153.136 43.5852 152.523C43.2519 151.902 42.786 151.413 42.1875 151.057C41.5966 150.701 40.9072 150.523 40.1193 150.523C39.2784 150.523 38.5398 150.727 37.9034 151.136C37.267 151.538 36.7708 152.068 36.4148 152.727C36.0663 153.379 35.8883 154.095 35.8807 154.875V157.295C35.8807 158.311 36.0663 159.182 36.4375 159.909C36.8087 160.629 37.3277 161.182 37.9943 161.568C38.661 161.947 39.4413 162.136 40.3352 162.136C40.9337 162.136 41.4754 162.053 41.9602 161.886C42.4451 161.712 42.8655 161.458 43.2216 161.125C43.5777 160.792 43.8466 160.379 44.0284 159.886L47.8693 160.318C47.6269 161.333 47.1648 162.22 46.483 162.977C45.8087 163.727 44.9451 164.311 43.892 164.727C42.839 165.136 41.6345 165.341 40.2784 165.341ZM55.6335 141.727V165H51.5199V141.727H55.6335ZM67.4773 165.341C65.7348 165.341 64.2386 164.958 62.9886 164.193C61.7462 163.428 60.7879 162.371 60.1136 161.023C59.447 159.667 59.1136 158.106 59.1136 156.341C59.1136 154.568 59.4545 153.004 60.1364 151.648C60.8182 150.284 61.7803 149.223 63.0227 148.466C64.2727 147.701 65.75 147.318 67.4545 147.318C68.8712 147.318 70.125 147.58 71.2159 148.102C72.3144 148.617 73.1894 149.348 73.8409 150.295C74.4924 151.235 74.8636 152.333 74.9545 153.591H71.0227C70.8636 152.75 70.4848 152.049 69.8864 151.489C69.2955 150.92 68.5038 150.636 67.5114 150.636C66.6705 150.636 65.9318 150.864 65.2955 151.318C64.6591 151.765 64.1629 152.409 63.8068 153.25C63.4583 154.091 63.2841 155.098 63.2841 156.273C63.2841 157.462 63.4583 158.485 63.8068 159.341C64.1553 160.189 64.6439 160.845 65.2727 161.307C65.9091 161.761 66.6553 161.989 67.5114 161.989C68.1174 161.989 68.6591 161.875 69.1364 161.648C69.6212 161.413 70.0265 161.076 70.3523 160.636C70.678 160.197 70.9015 159.663 71.0227 159.034H74.9545C74.8561 160.269 74.4924 161.364 73.8636 162.318C73.2348 163.265 72.3788 164.008 71.2955 164.545C70.2121 165.076 68.9394 165.341 67.4773 165.341ZM85.946 165.341C84.2415 165.341 82.7642 164.966 81.5142 164.216C80.2642 163.466 79.2945 162.417 78.6051 161.068C77.9233 159.72 77.5824 158.144 77.5824 156.341C77.5824 154.538 77.9233 152.958 78.6051 151.602C79.2945 150.246 80.2642 149.193 81.5142 148.443C82.7642 147.693 84.2415 147.318 85.946 147.318C87.6506 147.318 89.1278 147.693 90.3778 148.443C91.6278 149.193 92.5938 150.246 93.2756 151.602C93.965 152.958 94.3097 154.538 94.3097 156.341C94.3097 158.144 93.965 159.72 93.2756 161.068C92.5938 162.417 91.6278 163.466 90.3778 164.216C89.1278 164.966 87.6506 165.341 85.946 165.341ZM85.9688 162.045C86.893 162.045 87.6657 161.792 88.2869 161.284C88.9081 160.769 89.3703 160.08 89.6733 159.216C89.9839 158.352 90.1392 157.39 90.1392 156.33C90.1392 155.261 89.9839 154.295 89.6733 153.432C89.3703 152.561 88.9081 151.867 88.2869 151.352C87.6657 150.837 86.893 150.58 85.9688 150.58C85.0218 150.58 84.2339 150.837 83.6051 151.352C82.9839 151.867 82.518 152.561 82.2074 153.432C81.9044 154.295 81.7528 155.261 81.7528 156.33C81.7528 157.39 81.9044 158.352 82.2074 159.216C82.518 160.08 82.9839 160.769 83.6051 161.284C84.2339 161.792 85.0218 162.045 85.9688 162.045ZM97.8011 165V147.545H101.733V150.511H101.938C102.301 149.511 102.903 148.731 103.744 148.17C104.585 147.602 105.589 147.318 106.756 147.318C107.938 147.318 108.934 147.606 109.744 148.182C110.563 148.75 111.138 149.527 111.472 150.511H111.653C112.04 149.542 112.691 148.769 113.608 148.193C114.532 147.61 115.627 147.318 116.892 147.318C118.498 147.318 119.809 147.826 120.824 148.841C121.839 149.856 122.347 151.337 122.347 153.284V165H118.222V153.92C118.222 152.837 117.934 152.045 117.358 151.545C116.782 151.038 116.078 150.784 115.244 150.784C114.252 150.784 113.475 151.095 112.915 151.716C112.362 152.33 112.085 153.129 112.085 154.114V165H108.051V153.75C108.051 152.848 107.778 152.129 107.233 151.591C106.695 151.053 105.991 150.784 105.119 150.784C104.528 150.784 103.991 150.936 103.506 151.239C103.021 151.534 102.634 151.955 102.347 152.5C102.059 153.038 101.915 153.667 101.915 154.386V165H97.8011ZM134.247 165.341C132.497 165.341 130.986 164.977 129.713 164.25C128.448 163.515 127.474 162.477 126.793 161.136C126.111 159.788 125.77 158.201 125.77 156.375C125.77 154.58 126.111 153.004 126.793 151.648C127.482 150.284 128.444 149.223 129.679 148.466C130.914 147.701 132.365 147.318 134.031 147.318C135.107 147.318 136.122 147.492 137.077 147.841C138.039 148.182 138.887 148.712 139.622 149.432C140.365 150.152 140.948 151.068 141.372 152.182C141.796 153.288 142.009 154.606 142.009 156.136V157.398H127.702V154.625H138.065C138.058 153.837 137.887 153.136 137.554 152.523C137.221 151.902 136.755 151.413 136.156 151.057C135.565 150.701 134.876 150.523 134.088 150.523C133.247 150.523 132.509 150.727 131.872 151.136C131.236 151.538 130.74 152.068 130.384 152.727C130.035 153.379 129.857 154.095 129.849 154.875V157.295C129.849 158.311 130.035 159.182 130.406 159.909C130.777 160.629 131.296 161.182 131.963 161.568C132.63 161.947 133.41 162.136 134.304 162.136C134.902 162.136 135.444 162.053 135.929 161.886C136.414 161.712 136.834 161.458 137.19 161.125C137.546 160.792 137.815 160.379 137.997 159.886L141.838 160.318C141.596 161.333 141.134 162.22 140.452 162.977C139.777 163.727 138.914 164.311 137.861 164.727C136.808 165.136 135.603 165.341 134.247 165.341ZM174.403 153.364C174.403 155.871 173.934 158.019 172.994 159.807C172.063 161.587 170.79 162.951 169.176 163.898C167.57 164.845 165.748 165.318 163.71 165.318C161.672 165.318 159.847 164.845 158.233 163.898C156.627 162.943 155.354 161.576 154.415 159.795C153.483 158.008 153.017 155.864 153.017 153.364C153.017 150.856 153.483 148.712 154.415 146.932C155.354 145.144 156.627 143.777 158.233 142.83C159.847 141.883 161.672 141.409 163.71 141.409C165.748 141.409 167.57 141.883 169.176 142.83C170.79 143.777 172.063 145.144 172.994 146.932C173.934 148.712 174.403 150.856 174.403 153.364ZM170.165 153.364C170.165 151.598 169.888 150.11 169.335 148.898C168.79 147.678 168.032 146.758 167.062 146.136C166.093 145.508 164.975 145.193 163.71 145.193C162.445 145.193 161.328 145.508 160.358 146.136C159.388 146.758 158.627 147.678 158.074 148.898C157.528 150.11 157.256 151.598 157.256 153.364C157.256 155.129 157.528 156.621 158.074 157.841C158.627 159.053 159.388 159.973 160.358 160.602C161.328 161.223 162.445 161.534 163.71 161.534C164.975 161.534 166.093 161.223 167.062 160.602C168.032 159.973 168.79 159.053 169.335 157.841C169.888 156.621 170.165 155.129 170.165 153.364ZM182.321 154.773V165H178.207V147.545H182.139V150.511H182.344C182.745 149.534 183.385 148.758 184.264 148.182C185.151 147.606 186.245 147.318 187.548 147.318C188.753 147.318 189.802 147.576 190.696 148.091C191.598 148.606 192.295 149.352 192.787 150.33C193.287 151.307 193.533 152.492 193.526 153.886V165H189.412V154.523C189.412 153.356 189.109 152.443 188.503 151.784C187.904 151.125 187.075 150.795 186.014 150.795C185.295 150.795 184.654 150.955 184.094 151.273C183.541 151.583 183.105 152.034 182.787 152.625C182.476 153.216 182.321 153.932 182.321 154.773ZM197.889 165V141.727H202.003V150.432H202.173C202.385 150.008 202.685 149.557 203.071 149.08C203.457 148.595 203.98 148.182 204.639 147.841C205.298 147.492 206.139 147.318 207.162 147.318C208.51 147.318 209.726 147.663 210.81 148.352C211.901 149.034 212.764 150.045 213.401 151.386C214.045 152.72 214.366 154.356 214.366 156.295C214.366 158.212 214.052 159.841 213.423 161.182C212.795 162.523 211.938 163.545 210.855 164.25C209.772 164.955 208.545 165.307 207.173 165.307C206.173 165.307 205.344 165.14 204.685 164.807C204.026 164.473 203.495 164.072 203.094 163.602C202.7 163.125 202.393 162.674 202.173 162.25H201.935V165H197.889ZM201.923 156.273C201.923 157.402 202.082 158.39 202.401 159.239C202.726 160.087 203.192 160.75 203.798 161.227C204.412 161.697 205.154 161.932 206.026 161.932C206.935 161.932 207.696 161.689 208.31 161.205C208.923 160.712 209.385 160.042 209.696 159.193C210.014 158.337 210.173 157.364 210.173 156.273C210.173 155.189 210.018 154.227 209.707 153.386C209.397 152.545 208.935 151.886 208.321 151.409C207.707 150.932 206.942 150.693 206.026 150.693C205.147 150.693 204.401 150.924 203.787 151.386C203.173 151.848 202.707 152.496 202.389 153.33C202.079 154.163 201.923 155.144 201.923 156.273ZM225.477 165.341C223.773 165.341 222.295 164.966 221.045 164.216C219.795 163.466 218.826 162.417 218.136 161.068C217.455 159.72 217.114 158.144 217.114 156.341C217.114 154.538 217.455 152.958 218.136 151.602C218.826 150.246 219.795 149.193 221.045 148.443C222.295 147.693 223.773 147.318 225.477 147.318C227.182 147.318 228.659 147.693 229.909 148.443C231.159 149.193 232.125 150.246 232.807 151.602C233.496 152.958 233.841 154.538 233.841 156.341C233.841 158.144 233.496 159.72 232.807 161.068C232.125 162.417 231.159 163.466 229.909 164.216C228.659 164.966 227.182 165.341 225.477 165.341ZM225.5 162.045C226.424 162.045 227.197 161.792 227.818 161.284C228.439 160.769 228.902 160.08 229.205 159.216C229.515 158.352 229.67 157.39 229.67 156.33C229.67 155.261 229.515 154.295 229.205 153.432C228.902 152.561 228.439 151.867 227.818 151.352C227.197 150.837 226.424 150.58 225.5 150.58C224.553 150.58 223.765 150.837 223.136 151.352C222.515 151.867 222.049 152.561 221.739 153.432C221.436 154.295 221.284 155.261 221.284 156.33C221.284 157.39 221.436 158.352 221.739 159.216C222.049 160.08 222.515 160.769 223.136 161.284C223.765 161.792 224.553 162.045 225.5 162.045ZM242.355 165.352C241.249 165.352 240.253 165.155 239.366 164.761C238.488 164.36 237.791 163.769 237.276 162.989C236.768 162.208 236.514 161.246 236.514 160.102C236.514 159.117 236.696 158.303 237.06 157.659C237.423 157.015 237.92 156.5 238.548 156.114C239.177 155.727 239.885 155.436 240.673 155.239C241.469 155.034 242.291 154.886 243.139 154.795C244.162 154.689 244.991 154.595 245.628 154.511C246.264 154.42 246.726 154.284 247.014 154.102C247.31 153.913 247.457 153.621 247.457 153.227V153.159C247.457 152.303 247.204 151.64 246.696 151.17C246.188 150.701 245.457 150.466 244.503 150.466C243.495 150.466 242.696 150.686 242.105 151.125C241.522 151.564 241.128 152.083 240.923 152.682L237.082 152.136C237.385 151.076 237.885 150.189 238.582 149.477C239.279 148.758 240.132 148.22 241.139 147.864C242.147 147.5 243.26 147.318 244.48 147.318C245.321 147.318 246.158 147.417 246.991 147.614C247.825 147.811 248.586 148.136 249.276 148.591C249.965 149.038 250.518 149.648 250.935 150.42C251.359 151.193 251.571 152.159 251.571 153.318V165H247.616V162.602H247.48C247.23 163.087 246.878 163.542 246.423 163.966C245.976 164.383 245.412 164.72 244.73 164.977C244.056 165.227 243.264 165.352 242.355 165.352ZM243.423 162.33C244.249 162.33 244.965 162.167 245.571 161.841C246.177 161.508 246.643 161.068 246.969 160.523C247.302 159.977 247.469 159.383 247.469 158.739V156.682C247.34 156.788 247.12 156.886 246.81 156.977C246.507 157.068 246.166 157.148 245.787 157.216C245.408 157.284 245.033 157.345 244.662 157.398C244.291 157.451 243.969 157.496 243.696 157.534C243.082 157.617 242.533 157.754 242.048 157.943C241.563 158.133 241.181 158.398 240.901 158.739C240.62 159.072 240.48 159.504 240.48 160.034C240.48 160.792 240.757 161.364 241.31 161.75C241.863 162.136 242.567 162.33 243.423 162.33ZM255.707 165V147.545H259.696V150.455H259.878C260.196 149.447 260.741 148.67 261.514 148.125C262.295 147.572 263.185 147.295 264.185 147.295C264.412 147.295 264.666 147.307 264.946 147.33C265.234 147.345 265.473 147.371 265.662 147.409V151.193C265.488 151.133 265.211 151.08 264.832 151.034C264.461 150.981 264.101 150.955 263.753 150.955C263.003 150.955 262.329 151.117 261.73 151.443C261.139 151.761 260.673 152.205 260.332 152.773C259.991 153.341 259.821 153.996 259.821 154.739V165H255.707ZM274.153 165.307C272.782 165.307 271.555 164.955 270.472 164.25C269.388 163.545 268.532 162.523 267.903 161.182C267.275 159.841 266.96 158.212 266.96 156.295C266.96 154.356 267.278 152.72 267.915 151.386C268.559 150.045 269.426 149.034 270.517 148.352C271.608 147.663 272.824 147.318 274.165 147.318C275.188 147.318 276.028 147.492 276.688 147.841C277.347 148.182 277.869 148.595 278.256 149.08C278.642 149.557 278.941 150.008 279.153 150.432H279.324V141.727H283.449V165H279.403V162.25H279.153C278.941 162.674 278.634 163.125 278.233 163.602C277.831 164.072 277.301 164.473 276.642 164.807C275.983 165.14 275.153 165.307 274.153 165.307ZM275.301 161.932C276.172 161.932 276.915 161.697 277.528 161.227C278.142 160.75 278.608 160.087 278.926 159.239C279.244 158.39 279.403 157.402 279.403 156.273C279.403 155.144 279.244 154.163 278.926 153.33C278.616 152.496 278.153 151.848 277.54 151.386C276.934 150.924 276.188 150.693 275.301 150.693C274.384 150.693 273.619 150.932 273.006 151.409C272.392 151.886 271.93 152.545 271.619 153.386C271.309 154.227 271.153 155.189 271.153 156.273C271.153 157.364 271.309 158.337 271.619 159.193C271.938 160.042 272.403 160.712 273.017 161.205C273.638 161.689 274.4 161.932 275.301 161.932ZM292.866 141.727L292.491 158.159H288.832L288.469 141.727H292.866ZM290.662 165.25C289.973 165.25 289.382 165.008 288.889 164.523C288.404 164.038 288.162 163.447 288.162 162.75C288.162 162.068 288.404 161.485 288.889 161C289.382 160.515 289.973 160.273 290.662 160.273C291.336 160.273 291.92 160.515 292.412 161C292.912 161.485 293.162 162.068 293.162 162.75C293.162 163.212 293.045 163.633 292.81 164.011C292.582 164.39 292.279 164.693 291.901 164.92C291.529 165.14 291.116 165.25 290.662 165.25Z" fill="#1C2433"/>
<defs>
<clipPath id="clip0_28_277">
<rect width="60" height="60" fill="white" transform="translate(118 30)"/>
</clipPath>
</defs>
</svg>
