<svg width="124" height="25" viewBox="0 0 124 25" fill="none" xmlns="http://www.w3.org/2000/svg">
   <path fill-rule="evenodd" clip-rule="evenodd"
      d="M0.553438 2.71534C1.13017 1.36454 2.572 0.396794 4.07562 0.396794C15.4249 0.396794 26.7741 0.396794 38.144 0.396794C39.1327 0.376632 40.1213 0.739541 40.8423 1.3847C41.6662 2.11051 42.1399 3.19922 42.1193 4.28793C42.1193 8.54196 42.1193 12.796 42.1193 17.0702C42.0987 18.9855 40.3891 20.7194 38.4323 20.7597C34.2922 20.7799 30.1521 20.7597 26.012 20.7597C26.5682 22.1105 27.1243 23.4411 27.6804 24.792C25.2087 23.4613 22.7782 22.0903 20.2859 20.7799C14.8481 20.7395 9.38979 20.7799 3.93144 20.7597C1.97467 20.6992 0.265072 18.9855 0.244475 17.0702C0.223877 12.8968 0.244475 8.72341 0.223877 4.57018C0.223877 3.94518 0.28567 3.30002 0.553438 2.71534Z"
      fill="#9C5C8F" />
   <path fill-rule="evenodd" clip-rule="evenodd"
      d="M17.1962 3.01774C17.8142 2.37258 19.0088 2.57419 19.4826 3.32016C19.7297 3.70322 19.7503 4.22741 19.5444 4.63064C18.6793 6.32419 18.3085 8.19919 17.9789 10.0339C17.5876 12.4331 17.258 14.8726 17.3816 17.3121C17.4228 17.9371 17.1138 18.6831 16.4341 18.8443C15.7956 18.9855 15.1983 18.5621 14.7863 18.1185C12.9325 16.1629 11.8821 13.6427 11.1199 11.1226C10.3578 12.5944 9.59573 14.0863 8.85422 15.5581C8.33928 16.5661 7.78315 17.5944 6.95924 18.4008C6.60908 18.7435 6.01176 19.046 5.55861 18.7032C4.87889 18.1185 4.71411 17.1911 4.42574 16.4048C3.33407 12.7153 2.71615 8.90484 2.07762 5.11452C1.93344 4.48952 2.20121 3.72339 2.83973 3.48145C3.35467 3.3 4.03439 3.25967 4.46694 3.64274C4.7759 3.90484 4.85829 4.32823 4.92009 4.71129C5.37323 7.65484 5.88817 10.5782 6.62968 13.4613C7.86554 11.1629 9.10139 8.86451 10.3372 6.54596C10.5226 6.20322 10.7492 5.86048 11.0788 5.65887C11.5319 5.37661 12.191 5.39677 12.5824 5.8C12.8913 6.12258 13.0149 6.58629 13.0973 7.00968C13.4681 8.90484 13.9624 10.8 14.6833 12.5944C14.9923 9.87258 15.3836 7.11048 16.3929 4.55C16.6195 4.00564 16.8255 3.46129 17.1962 3.01774ZM24.1788 4.48951C25.5176 4.32822 26.9595 4.77177 27.8658 5.75967C28.6073 6.58629 29.0192 7.65484 29.1634 8.72339C29.39 10.5581 29.0398 12.4935 28.1335 14.1266C27.6186 15.054 26.9595 15.9613 26.012 16.5056C24.6319 17.3323 22.7782 17.2314 21.4393 16.3645C20.3683 15.6387 19.7709 14.429 19.5238 13.2194C19.0294 10.4573 19.8739 7.39274 21.9955 5.47742C22.6134 4.93306 23.3755 4.59032 24.1788 4.48951ZM24.4466 7.3121C23.808 7.51371 23.3961 8.09839 23.0459 8.62258C22.1808 9.99355 21.9337 11.7879 22.634 13.2597C22.8194 13.6427 23.1077 14.0661 23.5815 14.1468C24.0758 14.2274 24.529 13.9452 24.8791 13.6427C25.6618 12.9774 26.0532 11.9895 26.2592 11.0016C26.4651 9.89274 26.3621 8.6629 25.703 7.69516C25.4353 7.33226 24.8997 7.17097 24.4466 7.3121ZM34.8689 4.48951C36.1666 4.32822 37.5878 4.73145 38.4941 5.67903C39.318 6.54597 39.7506 7.69516 39.8741 8.86451C40.0595 10.6387 39.73 12.4935 38.8649 14.0661C38.3499 15.0137 37.6702 15.9411 36.6815 16.5056C35.3633 17.2919 33.5919 17.2113 32.2736 16.4452C31.3879 15.921 30.7906 15.0339 30.4405 14.0863C29.5136 11.2032 30.2963 7.81612 32.4384 5.6387C33.1387 5.03387 33.9832 4.59032 34.8689 4.48951ZM35.1573 7.3121C34.457 7.55403 34.045 8.21935 33.6743 8.80403C32.8916 10.1548 32.6856 11.9089 33.4065 13.3403C33.5919 13.7435 33.942 14.1266 34.4158 14.1468C34.9307 14.1669 35.3839 13.8444 35.7546 13.5016C36.5579 12.7355 36.9081 11.6468 37.0317 10.5782C37.1553 9.59032 36.9905 8.52177 36.3932 7.675C36.146 7.33225 35.6104 7.17097 35.1573 7.3121Z"
      fill="white" />
   <path fill-rule="evenodd" clip-rule="evenodd"
      d="M49.1638 4.87259C50.2966 4.63065 51.4913 4.65082 52.6242 4.91292C52.6242 5.82017 52.6242 6.72743 52.6242 7.63469C51.6973 7.41292 50.6468 7.2113 49.7611 7.63469C48.69 8.15888 48.0927 9.34839 48.0927 10.4774C48.0309 11.6065 48.4223 12.8766 49.4521 13.5218C50.3996 14.1266 51.6149 14.0057 52.6448 13.7234C52.6448 14.6307 52.6448 15.5379 52.6448 16.4452C51.2647 16.8282 49.7611 16.7879 48.4223 16.304C46.8157 15.7194 45.5386 14.3484 45.0443 12.7355C44.6735 11.5057 44.6323 10.1952 44.9207 8.94517C45.3944 6.94921 47.1246 5.31614 49.1638 4.87259ZM57.5264 4.73146C58.927 4.57017 60.4512 4.79194 61.5841 5.65888C62.6758 6.48549 63.2113 7.8363 63.4173 9.12662C63.6027 10.5581 63.5615 12.05 63.1083 13.421C62.717 14.5903 61.9137 15.679 60.7602 16.2234C59.5861 16.7677 58.2061 16.8081 56.9497 16.5258C55.7962 16.2637 54.7663 15.5178 54.1896 14.4895C53.3863 13.1186 53.2421 11.4855 53.3039 9.93308C53.3657 8.60243 53.7158 7.2113 54.6221 6.18307C55.3636 5.35646 56.4347 4.85243 57.5264 4.73146ZM57.9589 7.33227C57.3616 7.4734 57.0115 8.05807 56.8673 8.60243C56.5789 9.69114 56.6201 10.8202 56.7025 11.929C56.7849 12.5339 56.8467 13.179 57.2792 13.6629C57.856 14.3081 59.03 14.2274 59.545 13.5621C59.8951 13.1387 59.9981 12.5944 60.0599 12.0702C60.1835 11.1428 60.2041 10.1952 60.0599 9.26775C59.9569 8.70323 59.7921 8.11856 59.3802 7.69517C59.0094 7.33227 58.4533 7.2113 57.9589 7.33227ZM112.893 4.91292C114.087 4.6105 115.344 4.65082 116.538 4.89275C116.559 5.80001 116.538 6.70727 116.559 7.63469C115.653 7.41292 114.643 7.2113 113.758 7.59436C112.728 8.05807 112.11 9.12662 112.028 10.1952C111.904 11.4048 112.234 12.7758 113.325 13.4815C114.273 14.1266 115.509 14.0057 116.559 13.7032C116.538 14.6105 116.58 15.5379 116.538 16.4452C115.076 16.8081 113.469 16.7678 112.089 16.1831C110.565 15.5379 109.37 14.1669 108.938 12.5944C108.608 11.3847 108.567 10.0944 108.876 8.86452C109.329 6.96936 110.956 5.41695 112.893 4.91292ZM65.2505 4.99356C66.5687 4.99356 67.9076 4.99356 69.2258 4.99356C69.6995 7.09033 70.1527 9.20727 70.5646 11.3242C70.9354 9.18711 71.4503 7.09033 71.9653 4.99356C73.3247 4.99356 74.6842 4.99356 76.0436 4.99356C76.5791 8.80404 77.0941 12.6145 77.609 16.4049C76.5791 16.4049 75.5287 16.4049 74.4988 16.4049C74.2104 13.804 73.9632 11.1831 73.6543 8.58227C73.0158 11.1831 72.3566 13.804 71.7181 16.4049C71.0178 16.4049 70.2969 16.4049 69.5966 16.4049C68.9168 13.804 68.2577 11.1831 67.5574 8.5621C67.2896 11.1629 67.0219 13.7839 66.7541 16.4049C65.7654 16.4049 64.7767 16.4049 63.7675 16.4049C64.2618 12.6145 64.7561 8.80404 65.2505 4.99356ZM79.504 4.99356C80.8222 4.99356 82.1611 4.99356 83.4793 4.99356C83.953 7.09033 84.4062 9.20727 84.8181 11.3242C85.2095 9.20727 85.7038 7.09033 86.2188 4.99356H90.2765C90.812 8.80404 91.327 12.6145 91.8419 16.4049C90.812 16.4049 89.7616 16.4049 88.7317 16.4049C88.4433 13.804 88.1756 11.1831 87.8872 8.58227C87.2487 11.1831 86.6101 13.804 85.951 16.4049C85.2507 16.4049 84.5298 16.4049 83.8295 16.4049C83.1497 13.7839 82.47 11.1831 81.7903 8.5621C81.5225 11.1831 81.2548 13.7839 80.987 16.4049C79.9983 16.4049 79.0096 16.4049 78.0004 16.4049C78.5153 12.6145 79.0096 8.80404 79.504 4.99356ZM92.7482 5.03388C94.8698 4.99356 97.0119 5.03388 99.1335 5.01372C99.1335 5.82017 99.1335 6.62662 99.1335 7.45323C98.0624 7.47339 96.9913 7.45323 95.9202 7.45323C95.9202 8.15888 95.9202 8.84437 95.9202 9.55001C96.8471 9.55001 97.774 9.55001 98.7009 9.55001C98.7009 10.3363 98.7009 11.1226 98.7009 11.9089C97.774 11.9089 96.8471 11.9089 95.9202 11.9089C95.9202 12.5944 95.9202 13.3 95.9202 14.0057C96.9913 14.0057 98.083 14.0057 99.1541 14.0057C99.1541 14.8121 99.1541 15.6186 99.1541 16.4452C97.0325 16.4452 94.8904 16.4452 92.7688 16.4452C92.7482 12.6347 92.7894 8.84436 92.7482 5.03388ZM100.04 4.99356C101.379 4.99356 102.697 4.9734 104.036 4.99356C105.292 5.03388 106.631 5.3363 107.558 6.20324C108.402 6.96937 108.691 8.23953 108.361 9.30807C108.093 10.175 107.434 10.8807 106.61 11.2637C107.434 12.9774 108.279 14.6911 109.123 16.4049C108.011 16.4049 106.899 16.4049 105.807 16.4049C104.942 14.6508 104.097 12.8968 103.212 11.1629C103.191 12.9169 103.212 14.671 103.212 16.4049C102.161 16.4049 101.111 16.4049 100.06 16.4049C100.04 12.6145 100.04 8.80404 100.04 4.99356ZM103.191 7.19114C103.191 8.0984 103.191 9.00565 103.191 9.91291C103.768 9.87259 104.386 9.85243 104.86 9.50969C105.416 9.10646 105.354 8.27985 105.004 7.75565C104.571 7.25162 103.809 7.25162 103.191 7.19114ZM117.445 5.01372C119.566 5.01372 121.688 5.01372 123.809 5.01372C123.809 5.82017 123.809 6.64678 123.809 7.45323C122.738 7.45323 121.647 7.45323 120.576 7.45323C120.576 8.15888 120.576 8.84437 120.576 9.55001C121.502 9.55001 122.429 9.55001 123.356 9.55001C123.356 10.3363 123.356 11.1226 123.356 11.9089H120.576C120.576 12.6145 120.576 13.3 120.576 14.0057C121.667 14.0057 122.738 14.0057 123.83 14.0057C123.83 14.8121 123.83 15.6186 123.83 16.4452C121.708 16.4452 119.566 16.4452 117.445 16.4452C117.424 12.6145 117.445 8.80404 117.445 5.01372Z"
      fill="black" />
</svg>